<svg width="1309" height="758" viewBox="0 0 1309 758" fill="none" xmlns="http://www.w3.org/2000/svg">
<rect x="-223" y="129" width="1" height="264" transform="rotate(-90 -223 129)" fill="#D9D9D9"/>
<rect x="76" y="93" width="1" height="265" transform="rotate(-180 76 93)" fill="#D9D9D9"/>
<rect width="1" height="264" transform="matrix(0 1 1 0 111 128)" fill="#D9D9D9"/>
<rect width="1" height="265" transform="matrix(-1 0 0 1 76 163)" fill="#D9D9D9"/>
<rect x="64.0967" y="128.428" width="1" height="24.6189" transform="rotate(-90 64.0967 128.428)" fill="#D9D9D9"/>
<rect x="77.0967" y="140.428" width="1" height="24.7122" transform="rotate(180 77.0967 140.428)" fill="#D9D9D9"/>
<rect x="-223" y="758" width="1" height="264" transform="rotate(-90 -223 758)" fill="#D9D9D9"/>
<rect x="76" y="722" width="1" height="265" transform="rotate(-180 76 722)" fill="#D9D9D9"/>
<rect width="1" height="264" transform="matrix(0 1 1 0 111 757)" fill="#D9D9D9"/>
<rect x="64.0967" y="757.428" width="1" height="24.6189" transform="rotate(-90 64.0967 757.428)" fill="#D9D9D9"/>
<rect x="77.0967" y="769.428" width="1" height="24.7122" transform="rotate(180 77.0967 769.428)" fill="#D9D9D9"/>
<rect x="411" y="129" width="1" height="264" transform="rotate(-90 411 129)" fill="#D9D9D9"/>
<rect x="710" y="93" width="1" height="265" transform="rotate(-180 710 93)" fill="#D9D9D9"/>
<rect width="1" height="264" transform="matrix(0 1 1 0 745 128)" fill="#D9D9D9"/>
<rect width="1" height="265" transform="matrix(-1 0 0 1 710 163)" fill="#D9D9D9"/>
<rect x="698.097" y="128.428" width="1" height="24.6189" transform="rotate(-90 698.097 128.428)" fill="#D9D9D9"/>
<rect x="711.097" y="140.428" width="1" height="24.7122" transform="rotate(180 711.097 140.428)" fill="#D9D9D9"/>
<rect x="710" y="723" width="1" height="265" transform="rotate(-180 710 723)" fill="#D9D9D9"/>
<rect x="698.097" y="758.428" width="1" height="24.6189" transform="rotate(-90 698.097 758.428)" fill="#D9D9D9"/>
<rect x="711.097" y="770.428" width="1" height="24.7122" transform="rotate(180 711.097 770.428)" fill="#D9D9D9"/>
</svg>
