<svg width="133" height="63" viewBox="0 0 133 63" fill="none" xmlns="http://www.w3.org/2000/svg">
<path d="M67.6007 43.1268C67.3909 43.0444 67.1847 42.9844 66.9824 42.9469C66.7875 42.9094 66.5926 42.8907 66.3977 42.8907C66.0304 42.8907 65.7156 42.9469 65.4533 43.0594C65.1909 43.1643 64.9885 43.3367 64.8461 43.5765C64.7112 43.8164 64.6437 44.135 64.6437 44.5322V48.22C64.6437 48.6098 64.7037 48.9284 64.8236 49.1757C64.9436 49.4156 65.1272 49.5917 65.3746 49.7041C65.6219 49.8091 65.933 49.8615 66.3078 49.8615C66.4577 49.8615 66.6151 49.8503 66.78 49.8278C66.9524 49.7978 67.136 49.7604 67.3309 49.7154C67.5258 49.6629 67.7282 49.603 67.938 49.5355L68.073 50.0527C67.7581 50.1726 67.4471 50.2626 67.1398 50.3225C66.8399 50.39 66.5476 50.4237 66.2628 50.4237C65.7906 50.4237 65.3858 50.3488 65.0485 50.1988C64.7112 50.0414 64.4526 49.8016 64.2727 49.4793C64.0928 49.157 64.0029 48.7447 64.0029 48.2425V44.5772C64.0029 44.0525 64.1003 43.6253 64.2952 43.2955C64.4901 42.9657 64.7524 42.7221 65.0822 42.5646C65.412 42.4072 65.7831 42.3285 66.1953 42.3285C66.4876 42.3285 66.7687 42.3585 67.0386 42.4185C67.3084 42.4784 67.5595 42.5721 67.7919 42.6996L67.6007 43.1268ZM70.9945 43.0031V50.3113H70.3762V43.0031H68.4536V42.441H72.9734V43.0031H70.9945ZM78.9884 50.3113H78.3251L77.4144 47.5567H74.8621L73.9739 50.3113H73.2993L75.8291 42.441H76.425L78.9884 50.3113ZM75.0308 46.9383H77.2457L76.1214 43.4079L75.0308 46.9383ZM83.7205 42.441H84.8673V50.3113H84.2264V43.0369H83.7879C83.593 43.0369 83.4206 43.0706 83.2707 43.1381C83.1283 43.198 83.0121 43.2842 82.9222 43.3967C82.8322 43.5091 82.761 43.6478 82.7086 43.8127L81.112 49.052C81.0296 49.3219 80.9396 49.5505 80.8422 49.7379C80.7522 49.9178 80.6361 50.0639 80.4936 50.1764C80.3587 50.2888 80.1788 50.375 79.954 50.435L79.538 50.0864C79.7553 50.019 79.9315 49.9103 80.0664 49.7604C80.2013 49.603 80.3062 49.4455 80.3812 49.2881C80.4562 49.1232 80.5049 48.9996 80.5274 48.9171L81.989 44.0488C82.0265 43.9288 82.0752 43.7789 82.1352 43.599C82.1951 43.4191 82.2851 43.243 82.405 43.0706C82.5249 42.8907 82.6898 42.7408 82.8997 42.6209C83.1096 42.5009 83.3832 42.441 83.7205 42.441ZM88.3207 45.679C88.5456 45.679 88.7592 45.7165 88.9616 45.7915C89.164 45.8589 89.3476 45.9676 89.5125 46.1175C89.6774 46.2599 89.8048 46.4473 89.8948 46.6797C89.9922 46.9046 90.041 47.1744 90.041 47.4892V48.4224C90.041 48.8497 89.9772 49.1944 89.8498 49.4568C89.7224 49.7191 89.5425 49.9215 89.3101 50.0639C89.0778 50.2063 88.8042 50.3038 88.4894 50.3563C88.1821 50.4087 87.8485 50.435 87.4887 50.435C87.3763 50.435 87.2414 50.4312 87.084 50.4237C86.9341 50.4162 86.7766 50.405 86.6117 50.39C86.4543 50.3825 86.3044 50.3712 86.162 50.3563C86.0271 50.3488 85.9147 50.3413 85.8247 50.3338C85.7423 50.3263 85.7048 50.3225 85.7123 50.3225V42.441H86.3532V45.679H88.3207ZM89.4226 48.3437V47.5117C89.4226 47.2494 89.3851 47.0395 89.3101 46.8821C89.2427 46.7247 89.1527 46.6047 89.0403 46.5223C88.9279 46.4323 88.8117 46.3724 88.6918 46.3424C88.5718 46.3124 88.4631 46.2974 88.3657 46.2974H86.3532V49.8053C86.3681 49.8053 86.3944 49.8091 86.4319 49.8166C86.4768 49.8241 86.533 49.8316 86.6005 49.8391C86.668 49.8466 86.7467 49.8541 86.8366 49.8615C86.9341 49.869 87.039 49.8765 87.1514 49.884C87.2714 49.8915 87.3988 49.8953 87.5337 49.8953C87.841 49.8953 88.1109 49.8803 88.3432 49.8503C88.5756 49.8128 88.7705 49.7454 88.9279 49.6479C89.0928 49.543 89.2164 49.3856 89.2989 49.1757C89.3813 48.9658 89.4226 48.6885 89.4226 48.3437ZM95.0114 45.679V42.441H95.6522V50.3113H95.0114V46.2974H91.4472V50.3113H90.8064V42.441H91.4472V45.679H95.0114ZM96.514 44.5997C96.514 43.8351 96.7276 43.2542 97.1549 42.857C97.5821 42.4597 98.1668 42.2611 98.9088 42.2611C99.6509 42.2611 100.228 42.471 100.64 42.8907C101.053 43.303 101.259 43.8764 101.259 44.6109V48.22C101.259 48.6773 101.158 49.0708 100.955 49.4006C100.76 49.7304 100.483 49.9852 100.123 50.1651C99.7708 50.345 99.3623 50.435 98.8976 50.435C98.4554 50.435 98.0544 50.3525 97.6946 50.1876C97.3348 50.0227 97.0462 49.7753 96.8288 49.4455C96.619 49.1157 96.514 48.7072 96.514 48.22V44.5997ZM97.1549 48.2088C97.1549 48.5686 97.2298 48.8684 97.3798 49.1082C97.5297 49.3481 97.732 49.5317 97.9869 49.6592C98.2492 49.7791 98.5453 49.8391 98.8751 49.8391C99.2199 49.8391 99.5235 49.7828 99.7858 49.6704C100.048 49.5505 100.254 49.3706 100.404 49.1307C100.554 48.8834 100.629 48.5761 100.629 48.2088V44.4985C100.629 44.1312 100.558 43.8276 100.415 43.5878C100.273 43.3479 100.071 43.168 99.8083 43.0481C99.546 42.9207 99.2349 42.857 98.8751 42.857C98.5303 42.857 98.2267 42.9207 97.9644 43.0481C97.7096 43.168 97.5109 43.3479 97.3685 43.5878C97.2261 43.8276 97.1549 44.1312 97.1549 44.4985V48.2088ZM102.127 50.3113V42.441H105.882V43.0256H102.767V45.679H104.904L104.701 46.2974H102.767V49.7491H105.859V50.3113H102.127ZM66.735 53.441C67.0948 53.441 67.4133 53.4859 67.6907 53.5759C67.968 53.6583 68.2004 53.797 68.3878 53.9919C68.5826 54.1868 68.7288 54.4491 68.8263 54.7789C68.9237 55.1012 68.9724 55.5022 68.9724 55.982C68.9724 56.4467 68.9237 56.8439 68.8263 57.1737C68.7363 57.5035 68.5976 57.7696 68.4103 57.972C68.2304 58.1744 67.998 58.3243 67.7132 58.4218C67.4358 58.5117 67.1098 58.5567 66.735 58.5567H64.7224V61.3113H64.0816V53.441H66.735ZM64.7224 57.9383H66.7912C67.0086 57.9383 67.2072 57.9158 67.3871 57.8708C67.5745 57.8259 67.7394 57.7397 67.8818 57.6122C68.0242 57.4773 68.1329 57.2787 68.2079 57.0163C68.2903 56.754 68.3315 56.4092 68.3315 55.982C68.3315 55.5847 68.2903 55.2586 68.2079 55.0038C68.1329 54.7489 68.0242 54.5541 67.8818 54.4191C67.7469 54.2767 67.5857 54.1793 67.3984 54.1268C67.211 54.0668 67.0086 54.0369 66.7912 54.0369H64.7224V57.9383ZM69.7691 61.3113V53.441H73.5244V54.0256H70.41V56.679H72.5462L72.3438 57.2974H70.41V60.7491H73.5019V61.3113H69.7691ZM79.9696 53.441H80.6217V61.3113H74.3704V53.441H75.0225V60.6704H77.17V53.441H77.8221V60.6704H79.9696V53.441ZM81.5394 61.3113V53.441H85.2947V54.0256H82.1803V56.679H84.3165L84.1142 57.2974H82.1803V60.7491H85.2722V61.3113H81.5394ZM90.312 56.679V53.441H90.9529V61.3113H90.312V57.2974H86.7479V61.3113H86.107V53.441H86.7479V56.679H90.312ZM91.8934 53.441H92.523V60.1532L96.7955 53.441H97.4363V61.3113H96.7955V54.599L92.523 61.3113H91.8934V53.441ZM98.3824 61.3113V53.441H102.138V54.0256H99.0233V56.679H101.16L100.957 57.2974H99.0233V60.7491H102.115V61.3113H98.3824Z" fill="#1C2A35"/>
<path d="M105.852 11.7918L91.1144 35.9508H63.12L49.0866 61.4268H34.2783L55.668 24.132H84.4618L91.0433 11.7918H62.7979L69.909 0H98.9958L105.852 11.7918Z" fill="#1C2A35"/>
<path d="M63.6206 0L56.4907 11.7918H44.699H28.7938L13.9856 36.1979L21.3897 48.5381L36.1979 24.132H49.3608L27.9711 61.4268H15.3567L0 35.6595L21.3897 0H63.6206Z" fill="#1C2A35"/>
</svg>
