<svg width="77" height="77" viewBox="0 0 77 77" fill="none" xmlns="http://www.w3.org/2000/svg">
<path d="M27.5346 50.8358H73.2227C73.6278 50.8358 74.0115 50.6573 74.2721 50.3468C74.5327 50.0362 74.6433 49.6258 74.5729 49.2277C74.5711 49.2206 74.0402 46.2044 73.586 43.0259C72.8106 37.5951 66.1689 35.9638 65.3702 35.7862C65.3693 35.7862 65.3693 35.7853 65.3684 35.7853C65.3684 35.7853 59.9581 34.5984 58.6026 34.181C57.1151 33.7223 55.9675 32.6461 55.3481 31.2586C60.2043 29.0054 62.7814 23.471 63.1972 17.8992V17.2924H65.064C65.8208 17.2924 66.4346 16.6785 66.4346 15.9217C66.4346 15.165 65.8208 14.5511 65.064 14.5511H63.8433L63.7049 13.1518C63.3222 9.27913 60.663 6.06122 56.9321 4.9566L55.0126 4.38722V3.77679C55.0126 3.02002 54.3996 2.40613 53.642 2.40613H47.1412C46.3853 2.40613 45.7723 3.01822 45.7705 3.77318L45.7687 4.38001L43.8028 4.96187C40.0862 6.06483 37.4288 9.2665 37.0334 13.1197L36.8862 14.5509H35.6931C34.9355 14.5509 34.3225 15.1648 34.3225 15.9216C34.3225 16.6783 34.9355 17.2922 35.6931 17.2922H37.6144L37.6162 18.0025C38.0275 23.478 40.5887 28.9783 45.4171 31.2396C44.7987 32.6362 43.6485 33.7203 42.1565 34.1808C40.7992 34.5984 35.3889 35.7852 35.3889 35.7852C35.388 35.7852 35.3871 35.7861 35.3871 35.7861C34.5876 35.9637 27.9467 37.5948 27.1713 43.0257C26.7171 46.2042 26.1861 49.2203 26.1844 49.2275C26.1139 49.6255 26.2246 50.036 26.4852 50.3466C26.7458 50.6573 27.1295 50.8358 27.5346 50.8358ZM70.8722 43.4151C71.1256 45.1837 71.4014 46.9024 71.5995 48.0945H68.0667V39.8029C69.3785 40.5855 70.6349 41.7509 70.8722 43.4151ZM56.1521 7.58378C58.8104 8.37257 60.704 10.6642 60.9771 13.4233L61.0887 14.5512H55.0128V7.24555L56.1521 7.58378ZM52.2713 5.14775V14.5512H48.4887L48.5091 5.14775H52.2713ZM39.7606 13.4001C40.0426 10.657 41.9353 8.37618 44.582 7.58919L45.7635 7.23938L45.7474 14.5512H39.642L39.7606 13.4001ZM40.3532 17.8994V17.2925H60.4586L60.4604 17.7959C60.0187 23.6622 56.7384 29.582 50.4045 29.582C44.0716 29.5819 40.7912 23.662 40.3532 17.8994ZM50.4045 32.3232C51.2067 32.3232 51.9598 32.234 52.6853 32.0993C53.0789 33.0854 53.6563 33.967 54.3781 34.7102L50.4349 37.9128L46.4131 34.6646C47.103 33.9364 47.6588 33.0673 48.0577 32.0875C48.8027 32.2304 49.5783 32.3232 50.4045 32.3232ZM44.1188 36.3343L49.5763 40.7416C49.827 40.9451 50.1323 41.0467 50.4374 41.0467C50.7435 41.0467 51.0495 40.9451 51.3013 40.7398L56.691 36.3628C57.0453 36.5314 64.9907 38.5116 65.3254 38.6124V48.0945H35.4319V38.6124C35.7665 38.5116 42.5604 37.8233 44.1188 36.3343ZM29.8851 43.4151C30.1224 41.7509 31.3789 40.5855 32.6906 39.8029V48.0945H29.1578C29.3558 46.9024 29.6317 45.1819 29.8851 43.4151Z" fill="#1C444C"/>
<path d="M2.40625 4.14299V72.859C2.40625 73.8157 3.18527 74.5938 4.14281 74.5938H16.2037C17.1612 74.5938 17.9402 73.8157 17.9402 72.859V4.14299C17.9402 3.18455 17.1612 2.40643 16.2037 2.40643H4.14281C3.18527 2.40643 2.40625 3.18455 2.40625 4.14299ZM5.14757 5.14775H15.1989V11.544H11.0869C10.3302 11.544 9.71629 12.1579 9.71629 12.9147C9.71629 13.6714 10.3302 14.2853 11.0869 14.2853H15.1989V18.8542H11.0869C10.3302 18.8542 9.71629 19.4681 9.71629 20.2249C9.71629 20.9816 10.3302 21.5955 11.0869 21.5955H15.1989V26.1644H11.0869C10.3302 26.1644 9.71629 26.7783 9.71629 27.5351C9.71629 28.2918 10.3302 28.9057 11.0869 28.9057H15.1989V33.4746H11.0869C10.3302 33.4746 9.71629 34.0885 9.71629 34.8452C9.71629 35.602 10.3302 36.2159 11.0869 36.2159H15.1989V40.7848H11.0869C10.3302 40.7848 9.71629 41.3987 9.71629 42.1554C9.71629 42.9122 10.3302 43.5261 11.0869 43.5261H15.1989V48.095H11.0869C10.3302 48.095 9.71629 48.7088 9.71629 49.4656C9.71629 50.2224 10.3302 50.8363 11.0869 50.8363H15.1989V55.4051H11.0869C10.3302 55.4051 9.71629 56.019 9.71629 56.7758C9.71629 57.5326 10.3302 58.1465 11.0869 58.1465H15.1989V62.7153H11.0869C10.3302 62.7153 9.71629 63.3292 9.71629 64.086C9.71629 64.8428 10.3302 65.4566 11.0869 65.4566H15.1989V71.8529H5.14757V5.14775Z" fill="#1C444C"/>
<path d="M72.6748 74.5937C73.7322 74.5937 74.5934 73.7334 74.5934 72.6751V62.8075C74.5934 61.7492 73.7322 60.8872 72.6748 60.8872H36.5429C36.1502 60.8872 25.3983 66.0253 25.3983 66.0253C24.7434 66.352 24.3364 67.0087 24.3364 67.7422C24.3364 68.4738 24.7434 69.1307 25.3974 69.4572C25.3974 69.4572 36.1511 74.5935 36.5429 74.5935H72.6748V74.5937ZM71.852 71.8523H67.8847V63.6285H71.852V71.8523ZM28.095 67.7422L34.6234 64.4761V71.0064L28.095 67.7422ZM37.3648 63.6285H65.1436V71.8523H37.3648V63.6285Z" fill="#1C444C"/>
</svg>
