<svg width="77" height="77" viewBox="0 0 77 77" fill="none" xmlns="http://www.w3.org/2000/svg">
<path d="M39.8133 45.0757H41.3394L41.3412 45.5469C41.7035 50.3693 43.9407 55.2176 48.159 57.2736C47.6173 58.3838 46.6651 59.2395 45.4515 59.6143C44.2521 59.9838 39.5181 61.0224 39.5181 61.0224C39.5172 61.0224 39.5145 61.0233 39.5136 61.0233L39.51 61.0242C38.8032 61.1803 32.8494 62.6439 32.1505 67.5332C31.7508 70.3264 31.2839 72.9786 31.283 72.9856C31.2125 73.3836 31.3232 73.7941 31.5829 74.1047C31.8435 74.4152 32.2281 74.5938 32.6332 74.5938H72.8402C73.2453 74.5938 73.6299 74.4152 73.8896 74.1047C74.1502 73.7941 74.2608 73.3837 74.1904 72.9856C74.1886 72.9786 73.7219 70.3263 73.322 67.5332C72.6224 62.6305 66.6363 61.1723 65.9554 61.0224C65.9554 61.0224 61.2215 59.9836 60.0221 59.6143C58.8424 59.2502 57.9026 58.4328 57.3307 57.2852C61.5677 55.2326 63.8155 50.355 64.1823 45.4432V45.0755H65.6601C66.4168 45.0755 67.0307 44.4616 67.0307 43.7049C67.0307 42.9481 66.4168 42.3342 65.6601 42.3342H64.7356L64.6276 41.2492C64.2842 37.776 61.8979 34.8882 58.5496 33.896L56.9791 33.4302V33.0162C56.9791 32.2594 56.3652 31.6455 55.6084 31.6455H49.8874C49.1315 31.6455 48.5186 32.2577 48.5168 33.0126L48.5159 33.4231L46.9025 33.9014C43.5686 34.8918 41.1842 37.7654 40.8289 41.2224L40.7146 42.3342H39.8133C39.0557 42.3342 38.4427 42.9481 38.4427 43.7049C38.4427 44.4616 39.0557 45.0757 39.8133 45.0757ZM43.0401 63.0481L45.2819 71.8523H39.7473V63.7959C39.9615 63.7344 42.2692 63.2248 43.0401 63.0481ZM34.8643 67.9223C35.0499 66.6213 35.9806 65.6789 37.006 65.0149V71.8523H34.2557C34.427 70.8137 34.6545 69.3877 34.8643 67.9223ZM48.1098 71.8524L45.7031 62.3959C45.9048 62.3396 46.9034 62.0059 47.2085 61.8632L51.9275 65.6736C52.1782 65.8771 52.4835 65.9788 52.7886 65.9788C53.0946 65.9788 53.4008 65.8771 53.6524 65.6718L58.3115 61.8882C58.6015 62.0211 59.5742 62.3414 59.7786 62.3977L57.4575 71.8524H48.1098ZM65.7254 63.796V71.8524H60.28L62.4414 63.0501C63.2107 63.2257 65.5121 63.7344 65.7254 63.796ZM70.6093 67.9223C70.818 69.3875 71.0466 70.8135 71.2179 71.8523H68.4667V65.0158C69.4929 65.6789 70.4237 66.6222 70.6093 67.9223ZM56.0181 60.2193L52.7859 62.8446L49.4814 60.1755C50.0186 59.5803 50.4593 58.887 50.7896 58.115C51.4178 58.2266 52.0675 58.3024 52.76 58.3024C53.4302 58.3024 54.0602 58.2301 54.6715 58.1248C54.9998 58.9049 55.4558 59.6108 56.0181 60.2193ZM52.76 55.5611C47.2915 55.5611 44.4574 50.4281 44.079 45.4432V45.0755H61.4439L61.4448 45.3396C61.0617 50.4281 58.2276 55.5611 52.76 55.5611ZM57.7707 36.5231C60.0454 37.1978 61.666 39.1592 61.8997 41.5205L61.98 42.3344H56.9791V36.2885L57.7707 36.5231ZM54.2378 34.3868V42.3344H51.2385L51.2555 34.3868H54.2378ZM43.556 41.5026C43.7969 39.1538 45.4175 37.2012 47.6824 36.5284L48.5097 36.283L48.4972 42.3342H43.4702L43.556 41.5026Z" fill="#1C444C"/>
<path d="M3.45262 2.69124C2.98325 3.02316 2.73691 3.58366 2.79767 4.01197L3.85958 55.8984L4.14608 56.2589C4.61635 56.8532 4.62266 56.8621 17.911 58.2722L17.3818 62.7804C17.2988 63.4889 17.6084 64.1833 18.1903 64.592C20.0714 65.9109 22.1543 66.5776 24.0594 66.5642C29.0253 66.5292 29.3994 63.9407 29.3994 63.9407C29.3994 63.9407 35.9621 12.6704 35.5604 10.4174C35.2001 8.39691 33.6222 6.89782 31.7838 6.17865C24.6948 3.40154 6.63128 2.52175 4.64402 2.43242C4.23345 2.35753 3.80424 2.44325 3.45262 2.69124ZM26.7749 62.8376C25.4265 64.2386 22.6146 64.144 20.1615 62.6109L25.4533 17.5405C25.4746 17.3674 25.5737 17.2728 25.654 17.2229C25.7298 17.1764 25.887 17.1122 26.0957 17.1872C28.1 17.9297 30.5237 18.1403 32.4227 17.5067L26.7749 62.8376ZM30.7843 8.73093C32.1996 9.28602 32.7107 10.5027 32.9233 11.1671C33.3819 12.6 32.7019 14.0638 32.5404 14.2779C31.8694 15.1774 29.501 15.5236 27.047 14.6171C26.101 14.2655 25.0713 14.3655 24.2217 14.8848C23.3883 15.397 22.8456 16.2484 22.7315 17.2211L18.2303 55.5487C14.3441 55.1347 8.8318 54.5279 6.56601 54.2352L5.55689 5.22382C9.87686 5.45587 24.8598 6.4107 30.7843 8.73093Z" fill="#1C444C"/>
</svg>
