<svg width="77" height="77" viewBox="0 0 77 77" fill="none" xmlns="http://www.w3.org/2000/svg">
<path d="M48.9002 33.0139L48.8993 33.4243L47.2859 33.9026C43.952 34.893 41.5677 37.7664 41.2125 41.2234L41.0984 42.3353H40.1971C39.4394 42.3353 38.8264 42.9492 38.8264 43.7059C38.8264 44.4627 39.4394 45.0766 40.1971 45.0766H41.7229L41.7247 45.5478C42.087 50.37 44.3241 55.2182 48.5423 57.274C48.0005 58.384 47.0484 59.2399 45.8349 59.6147C44.6356 59.9841 39.9017 61.0228 39.9017 61.0228C39.9008 61.0228 39.8981 61.0237 39.8972 61.0237L39.8936 61.0246C39.1869 61.1807 33.2331 62.6442 32.5344 67.5334C32.1346 70.3264 31.668 72.9784 31.6671 72.9856C31.5965 73.3836 31.7072 73.7941 31.967 74.1047C32.2276 74.4152 32.6121 74.5938 33.0173 74.5938H73.2229C73.628 74.5938 74.0126 74.4152 74.2723 74.1047C74.5329 73.7941 74.6434 73.3837 74.5731 72.9856C74.5713 72.9786 74.1046 70.3264 73.7049 67.5334C73.0052 62.6308 67.0194 61.1727 66.3386 61.0228C66.3386 61.0228 61.6047 59.9841 60.4054 59.6147C59.2257 59.2506 58.2861 58.4332 57.714 57.2857C61.9508 55.2334 64.1987 50.3557 64.5655 45.4443V45.0766H66.0432C66.8 45.0766 67.4139 44.4627 67.4139 43.7059C67.4139 42.9492 66.8 42.3353 66.0432 42.3353H65.1188L65.0108 41.2502C64.6673 37.7772 62.281 34.8896 58.933 33.8973L57.3625 33.4315V33.0175C57.3625 32.2607 56.7486 31.6469 55.9919 31.6469H50.271C49.515 31.6469 48.902 32.2589 48.9002 33.0139ZM43.9397 41.5036C44.1806 39.155 45.8011 37.2024 48.066 36.5297L48.8931 36.2843L48.8806 42.3353H43.854L43.9397 41.5036ZM43.4239 63.0484L45.6654 71.8523H40.1311V63.7962C40.3454 63.7346 42.653 63.2251 43.4239 63.0484ZM35.2482 67.9224C35.4338 66.6214 36.3645 65.679 37.3897 65.0152V71.8524H34.6395C34.811 70.8137 35.0385 69.3877 35.2482 67.9224ZM48.4934 71.8523L46.0867 62.396C46.2884 62.3398 47.2869 62.0061 47.5921 61.8633L52.3107 65.6736C52.5614 65.8771 52.8667 65.9788 53.1719 65.9788C53.4779 65.9788 53.784 65.8771 54.0357 65.6718L58.6947 61.8883C58.9846 62.0212 59.9574 62.3416 60.1617 62.3978L57.8408 71.8523H48.4934ZM66.1082 63.7962V71.8523H60.6631L62.8244 63.0502C63.5936 63.226 65.8949 63.7346 66.1082 63.7962ZM70.992 67.9224C71.2007 69.3877 71.4291 70.8137 71.6006 71.8523H68.8495V65.016C69.8758 65.679 70.8064 66.6223 70.992 67.9224ZM56.4012 60.2197L53.1692 62.8449L49.8648 60.176C50.402 59.5807 50.8428 58.8874 51.173 58.1154C51.8012 58.227 52.4509 58.3028 53.1433 58.3028C53.8134 58.3028 54.4434 58.2305 55.0548 58.1252C55.3831 58.9053 55.8391 59.6111 56.4012 60.2197ZM53.1433 55.5617C47.675 55.5617 44.841 50.4288 44.4626 45.4443V45.0766H61.8267L61.8276 45.3407C61.4449 50.4288 58.6108 55.5617 53.1433 55.5617ZM58.1539 36.5243C60.4285 37.199 62.049 39.1604 62.2827 41.5215L62.363 42.3353H57.3624V36.2896L58.1539 36.5243ZM54.621 34.388V42.3353H51.6218L51.6388 34.388H54.621Z" fill="#1C444C"/>
<path d="M5.60446 72.766H27.5347C28.2915 72.766 28.9054 72.1521 28.9054 71.3954C28.9054 70.6386 28.2915 70.0247 27.5347 70.0247H23.4227V9.03288C23.4227 8.86339 23.5137 8.71165 23.6655 8.62773C25.5448 7.58191 30.6642 5.14754 37.5861 5.14754C44.4242 5.14754 49.597 7.58537 51.5022 8.6348C51.6566 8.71872 51.7494 8.87212 51.7494 9.04176V25.7071C51.7494 26.4639 52.3633 27.0778 53.1201 27.0778C53.8768 27.0778 54.4907 26.4639 54.4907 25.7071V9.04191C54.4907 7.87653 53.8528 6.80033 52.8247 6.23276C50.7322 5.08167 45.0596 2.40637 37.5861 2.40637C30.0217 2.40637 24.3989 5.08167 22.3297 6.23457C21.3134 6.80214 20.6816 7.87473 20.6816 9.03303V26.1643H5.60446C3.84113 26.1643 2.40625 27.5992 2.40625 29.3625V69.5681C2.40625 71.3311 3.84113 72.766 5.60446 72.766ZM5.14757 29.3624C5.14757 29.1108 5.35285 28.9055 5.60446 28.9055H20.6816V70.0248H5.60446C5.35285 70.0248 5.14757 69.8196 5.14757 69.568V29.3624Z" fill="#1C444C"/>
<path d="M33.0171 16.1128H42.1547C42.9115 16.1128 43.5254 15.4989 43.5254 14.7422C43.5254 13.9854 42.9115 13.3715 42.1547 13.3715H33.0171C32.2604 13.3715 31.6465 13.9854 31.6465 14.7422C31.6465 15.4989 32.2605 16.1128 33.0171 16.1128Z" fill="#1C444C"/>
<path d="M33.0171 27.0779H42.1547C42.9115 27.0779 43.5254 26.464 43.5254 25.7073C43.5254 24.9505 42.9115 24.3366 42.1547 24.3366H33.0171C32.2604 24.3366 31.6465 24.9505 31.6465 25.7073C31.6466 26.464 32.2605 27.0779 33.0171 27.0779Z" fill="#1C444C"/>
<path d="M33.0171 38.0431H36.6722C37.429 38.0431 38.0429 37.4292 38.0429 36.6724C38.0429 35.9157 37.429 35.3018 36.6722 35.3018H33.0171C32.2604 35.3018 31.6465 35.9157 31.6465 36.6724C31.6466 37.4292 32.2605 38.0431 33.0171 38.0431Z" fill="#1C444C"/>
<path d="M33.0171 49.0082H36.6722C37.429 49.0082 38.0429 48.3943 38.0429 47.6376C38.0429 46.8808 37.429 46.2669 36.6722 46.2669H33.0171C32.2604 46.2669 31.6465 46.8808 31.6465 47.6376C31.6465 48.3943 32.2605 49.0082 33.0171 49.0082Z" fill="#1C444C"/>
<path d="M33.0171 59.9734H34.8447C35.6015 59.9734 36.2154 59.3595 36.2154 58.6027C36.2154 57.846 35.6015 57.2321 34.8447 57.2321H33.0171C32.2604 57.2321 31.6465 57.846 31.6465 58.6027C31.6465 59.3595 32.2605 59.9734 33.0171 59.9734Z" fill="#1C444C"/>
<path d="M11.087 39.8707H14.7421C15.4988 39.8707 16.1127 39.2568 16.1127 38.5C16.1127 37.7432 15.4988 37.1293 14.7421 37.1293H11.087C10.3302 37.1293 9.71631 37.7432 9.71631 38.5C9.71631 39.2568 10.3304 39.8707 11.087 39.8707Z" fill="#1C444C"/>
<path d="M11.087 50.8357H14.7421C15.4988 50.8357 16.1127 50.2218 16.1127 49.4651C16.1127 48.7083 15.4988 48.0944 14.7421 48.0944H11.087C10.3302 48.0944 9.71631 48.7083 9.71631 49.4651C9.71631 50.2218 10.3304 50.8357 11.087 50.8357Z" fill="#1C444C"/>
<path d="M11.087 61.8009H14.7421C15.4988 61.8009 16.1127 61.187 16.1127 60.4302C16.1127 59.6735 15.4988 59.0596 14.7421 59.0596H11.087C10.3302 59.0596 9.71631 59.6735 9.71631 60.4302C9.71631 61.187 10.3304 61.8009 11.087 61.8009Z" fill="#1C444C"/>
</svg>
