<svg width="77" height="77" viewBox="0 0 77 77" fill="none" xmlns="http://www.w3.org/2000/svg">
<path d="M33.6224 48.0427H62.2525C64.7618 48.0427 66.8044 46.001 66.8044 43.4917V30.5473H72.4717C73.3052 30.5473 74.0422 30.0208 74.393 29.1748C74.7722 28.2611 74.6026 27.2223 73.9744 26.5941L50.9242 3.37714C49.6678 2.12243 47.6609 2.08499 46.4438 3.29864L23.4032 26.6335C22.7768 27.2617 22.6053 28.2844 22.9767 29.1803C23.3265 30.0244 24.0644 30.5473 24.9033 30.5473H29.0697V43.4917C29.0696 46.001 31.1122 48.0427 33.6224 48.0427ZM51.7495 45.3014H45.3533V34.8449C45.3533 34.5933 45.5586 34.388 45.8102 34.388H51.2928C51.5444 34.388 51.7497 34.5933 51.7497 34.8449L51.7495 45.3014ZM64.0631 43.4917C64.0631 44.4894 63.2502 45.3014 62.2525 45.3014H54.4909V34.8449C54.4909 33.0815 53.056 31.6467 51.2927 31.6467H45.81C44.0467 31.6467 42.6118 33.0815 42.6118 34.8449V45.3014H33.6222C32.6236 45.3014 31.8108 44.4893 31.8108 43.4917V29.5979L48.6138 12.6504L64.3458 28.3824C64.1798 28.6091 64.0629 28.8741 64.0629 29.1767V43.4917H64.0631ZM48.3873 5.23146C48.5416 5.07971 48.8228 5.15476 48.9834 5.31177L71.3152 27.806H67.6458L50.552 10.7121C49.5241 9.68588 47.8508 9.68588 46.822 10.7121L29.7281 27.806H26.098L48.3873 5.23146Z" fill="#1C444C"/>
<path d="M4.14281 2.40625C3.18527 2.40625 2.40625 3.18437 2.40625 4.14281V72.8591C2.40625 73.8156 3.18527 74.5938 4.14281 74.5938H16.2038C17.1614 74.5938 17.9404 73.8156 17.9404 72.859V4.14281C17.9404 3.18437 17.1614 2.40625 16.2038 2.40625H4.14281ZM5.14757 71.8524V5.14757H15.1989V11.544H11.0871C10.3303 11.544 9.71644 12.1579 9.71644 12.9146C9.71644 13.6714 10.3303 14.2853 11.0871 14.2853H15.1991V18.8542H11.0871C10.3303 18.8542 9.71644 19.4681 9.71644 20.2248C9.71644 20.9816 10.3303 21.5955 11.0871 21.5955H15.1991V26.1644H11.0871C10.3303 26.1644 9.71644 26.7783 9.71644 27.535C9.71644 28.2918 10.3303 28.9057 11.0871 28.9057H15.1991V33.4745H11.0871C10.3303 33.4745 9.71644 34.0884 9.71644 34.8452C9.71644 35.602 10.3303 36.2159 11.0871 36.2159H15.1991V40.7847H11.0871C10.3303 40.7847 9.71644 41.3986 9.71644 42.1554C9.71644 42.9122 10.3303 43.5261 11.0871 43.5261H15.1991V48.0949H11.0871C10.3303 48.0949 9.71644 48.7088 9.71644 49.4656C9.71644 50.2223 10.3303 50.8362 11.0871 50.8362H15.1991V55.4051H11.0871C10.3303 55.4051 9.71644 56.019 9.71644 56.7758C9.71644 57.5325 10.3303 58.1464 11.0871 58.1464H15.1991V62.7153H11.0871C10.3303 62.7153 9.71644 63.3292 9.71644 64.086C9.71644 64.8427 10.3303 65.4566 11.0871 65.4566H15.1991V71.853H5.14757V71.8524Z" fill="#1C444C"/>
<path d="M72.6752 60.8873H36.5431C36.1505 60.8873 25.3986 66.0254 25.3986 66.0254C24.7436 66.3521 24.3367 67.0088 24.3367 67.7423C24.3367 68.4739 24.7436 69.1308 25.3977 69.4573C25.3977 69.4573 36.1514 74.5936 36.5431 74.5936H72.6752C73.7326 74.5936 74.5938 73.7334 74.5938 72.6751V62.8077C74.5938 61.7494 73.7326 60.8873 72.6752 60.8873ZM28.0952 67.7423L34.6237 64.4763V71.0065L28.0952 67.7423ZM37.365 63.6286H65.1438V71.8526H37.365V63.6286ZM71.8524 71.8525H67.885V63.6285H71.8524V71.8525Z" fill="#1C444C"/>
</svg>
