<svg width="77" height="77" viewBox="0 0 77 77" fill="none" xmlns="http://www.w3.org/2000/svg">
<path d="M72.6044 42.7299C67.5595 41.8915 62.3662 42.5163 57.6656 44.5304L55.4732 45.4694C55.4732 45.4694 52.566 43.7643 52.2191 43.6019C50.4106 42.7528 41.5071 40.7228 40.5503 40.4264C38.6545 39.8368 37.1118 38.3937 36.3738 36.58C42.2237 34.0355 45.3241 27.4592 45.8185 20.8469V19.8565H48.3047C49.0541 19.8565 49.6604 19.2493 49.6604 18.5009C49.6604 17.7524 49.054 17.1453 48.3047 17.1453H46.6101L46.4226 15.2435C45.9819 10.7757 42.8794 7.01979 38.5751 5.74388L36.1038 5.01133V4.08643C36.1038 3.33778 35.4969 2.7308 34.7482 2.7308H27.0317C26.2845 2.7308 25.6783 3.33583 25.677 4.08297L25.6752 5.0026L23.1474 5.75275C18.8602 7.02521 15.7637 10.7578 15.3051 15.2063L15.1052 17.1453H13.4451C12.6966 17.1453 12.0895 17.7526 12.0895 18.5009C12.0895 19.2494 12.6967 19.8565 13.4451 19.8565H15.9957L15.9975 20.9491C16.4864 27.4415 19.5517 33.9621 25.3345 36.5349C24.6047 38.3874 23.1334 39.8313 21.1952 40.4297C19.5482 40.938 13.1547 42.3378 13.1547 42.3378C13.1538 42.3378 13.1529 42.3378 13.1529 42.3378C12.2693 42.5338 4.49639 44.4278 3.59976 50.7083C3.05881 54.4858 2.42762 58.0708 2.42686 58.0779C2.35708 58.4714 2.46657 58.8775 2.72343 59.1846C2.9812 59.4917 3.36154 59.6682 3.76218 59.6682H36.3527L36.4114 71.3411C36.4133 71.7276 36.5798 72.095 36.8693 72.3513C37.1749 72.6218 37.5795 72.7416 37.9824 72.6755C40.0729 72.3334 46.9551 71.8748 53.5615 73.7385C54.0045 73.8635 55.0773 74.0815 55.7027 74.2052C56.0166 74.2673 56.3345 74.2838 56.6534 74.2552C56.6534 74.2552 63.2259 71.3142 73.0368 72.7922C73.8859 72.9202 74.5936 72.0932 74.5936 71.2354V45.0811C74.5938 43.9126 73.7579 42.9241 72.6044 42.7299ZM37.8046 8.34233C41.0658 9.30964 43.3888 12.1216 43.7241 15.5072L43.8865 17.1453H36.1038V7.83837L37.8046 8.34233ZM33.3926 5.4422V17.1453H28.3601L28.3856 5.4422H33.3926ZM18.0028 15.4808C18.3489 12.1128 20.6709 9.31506 23.9189 8.3512L25.6691 7.8322L25.6488 17.1453H17.8317L18.0028 15.4808ZM18.7054 20.8469V19.8565H43.1092L43.111 20.7444C42.5779 27.8334 38.5975 34.9842 30.9065 34.9842C23.2155 34.9842 19.235 27.8336 18.7054 20.8469ZM30.9063 37.6956C31.9248 37.6956 32.8798 37.5799 33.7916 37.3937C34.2858 38.7053 35.0564 39.8633 36.0387 40.8103L30.9426 44.9488L25.7645 40.7661C26.7247 39.8243 27.4758 38.6788 27.9578 37.3831C28.8878 37.5774 29.864 37.6956 30.9063 37.6956ZM17.8969 44.0609L21.4185 56.9573H12.8644V45.2259C13.3481 45.0767 16.7734 44.3194 17.8969 44.0609ZM6.28288 51.0933C6.60863 48.8162 8.40459 47.3043 10.153 46.3537V56.9572H5.3685C5.60507 55.5363 5.96165 53.3404 6.28288 51.0933ZM24.2287 56.9573L20.5342 43.4255C21.0822 43.2842 23.002 42.6443 23.4749 42.4043L30.0935 47.7484C30.3415 47.9479 30.6433 48.0485 30.9451 48.0485C31.2479 48.0485 31.5506 47.9478 31.7995 47.7448C31.7995 47.7448 36.4302 44.2952 36.3527 44.2952V56.9573H24.2287ZM43.8575 69.5677C42.2601 69.5677 40.6492 69.6772 39.0641 69.8907V45.3617C43.5195 44.668 48.0754 45.2506 52.2138 47.0228L54.8254 48.1428V71.2904C54.8254 71.2904 47.4206 69.5677 43.8575 69.5677ZM71.8824 69.896C67.0846 69.2367 62.1915 69.5659 57.5368 70.8439V47.5364L58.7336 47.0227C62.8729 45.2486 67.4341 44.6749 71.8824 45.3598V69.896Z" fill="#1C444C"/>
<path d="M48.9509 56.9573H43.5282C42.7797 56.9573 42.1726 57.5646 42.1726 58.3129C42.1726 59.0614 42.7799 59.6685 43.5282 59.6685H48.9509C49.6994 59.6685 50.3065 59.0613 50.3065 58.3129C50.3065 57.5644 49.6992 56.9573 48.9509 56.9573Z" fill="#1C444C"/>
<path d="M48.9509 62.3799H43.5282C42.7797 62.3799 42.1726 62.9872 42.1726 63.7356C42.1726 64.4839 42.7799 65.0912 43.5282 65.0912H48.9509C49.6994 65.0912 50.3065 64.4839 50.3065 63.7356C50.3065 62.9872 49.6992 62.3799 48.9509 62.3799Z" fill="#1C444C"/>
<path d="M67.0263 56.9573H61.6037C60.8552 56.9573 60.248 57.5646 60.248 58.3129C60.248 59.0614 60.8553 59.6685 61.6037 59.6685H67.0263C67.7748 59.6685 68.3819 59.0613 68.3819 58.3129C68.3819 57.5644 67.7748 56.9573 67.0263 56.9573Z" fill="#1C444C"/>
<path d="M48.9509 51.5347H43.5282C42.7797 51.5347 42.1726 52.1419 42.1726 52.8903C42.1726 53.6386 42.7799 54.2459 43.5282 54.2459H48.9509C49.6994 54.2459 50.3065 53.6386 50.3065 52.8903C50.3065 52.1419 49.6992 51.5347 48.9509 51.5347Z" fill="#1C444C"/>
<path d="M67.0263 51.5347H61.6037C60.8552 51.5347 60.248 52.1419 60.248 52.8903C60.248 53.6386 60.8553 54.2459 61.6037 54.2459H67.0263C67.7748 54.2459 68.3819 53.6386 68.3819 52.8903C68.3819 52.1419 67.7748 51.5347 67.0263 51.5347Z" fill="#1C444C"/>
<path d="M63.4112 62.3799H61.6037C60.8552 62.3799 60.248 62.9872 60.248 63.7356C60.248 64.4839 60.8553 65.0912 61.6037 65.0912H63.4112C64.1597 65.0912 64.7668 64.4839 64.7668 63.7356C64.7668 62.9872 64.1597 62.3799 63.4112 62.3799Z" fill="#1C444C"/>
</svg>
