<svg width="77" height="77" viewBox="0 0 77 77" fill="none" xmlns="http://www.w3.org/2000/svg">
<path d="M72.8767 48.0552C68.8191 46.3508 65.1669 43.9237 62.0222 40.8434C60.1091 38.9677 56.8145 38.9677 54.8951 40.8434C53.967 41.7526 52.9819 42.5861 51.9682 43.3794C50.4609 42.761 41.9391 40.8184 40.9719 40.5185C39.0552 39.9224 37.4953 38.4634 36.7494 36.6297C42.6638 34.0571 45.7987 27.4082 46.2983 20.7229V19.7218H48.8121C49.5697 19.7218 50.1827 19.1079 50.1827 18.3511C50.1827 17.5943 49.5697 16.9804 48.8121 16.9804H47.0988L46.9087 15.053C46.4598 10.5163 43.3457 6.74891 38.9749 5.45314L36.4763 4.71247V3.77734C36.4763 3.02057 35.8633 2.40668 35.1056 2.40668H27.3047C26.5488 2.40668 25.9358 3.01877 25.934 3.77373L25.9322 4.70359L23.3765 5.46201C19.0236 6.75236 15.912 10.5037 15.4481 15.0154L15.2455 16.9804H13.5671C12.8104 16.9804 12.1965 17.5943 12.1965 18.3511C12.1965 19.1079 12.8104 19.7218 13.5671 19.7218H16.146L16.1478 20.8265C16.6422 27.3906 19.7413 33.9831 25.5878 36.5844C24.8499 38.4574 23.3624 39.9174 21.4028 40.5224C19.7376 41.0365 13.2736 42.4516 13.2736 42.4516C13.2727 42.4516 13.2718 42.4516 13.2718 42.4516C12.3786 42.6497 4.51962 44.5648 3.61306 50.9146C3.06609 54.7337 2.42799 58.3585 2.42708 58.3657C2.35655 58.7636 2.46724 59.1742 2.72696 59.4847C2.98759 59.7953 3.37214 59.9738 3.77729 59.9738H45.7709C47.3253 63.0827 49.1984 66.0293 51.3971 68.7777L54.548 72.7148C55.5028 73.9087 56.9288 74.594 58.4583 74.594C59.9886 74.594 61.4137 73.9087 62.3695 72.7148L65.5221 68.7742C69.6527 63.6093 72.6688 57.7662 74.4857 51.4074C74.8755 50.0434 74.1831 48.6031 72.8767 48.0552ZM49.2261 45.3157C47.5798 46.3624 45.8575 47.2923 44.039 48.0552C43.5188 48.2748 43.1324 48.6593 42.837 49.1001L44.0569 44.1324C44.1851 44.1628 48.7915 45.1863 49.2261 45.3157ZM38.1958 8.08001C41.493 9.058 43.8417 11.901 44.1808 15.324L44.345 16.9803H36.4763V7.57049L38.1958 8.08001ZM33.735 5.14785V16.9803H28.6468L28.6727 5.14785H33.735ZM18.1752 15.2973C18.525 11.8921 20.8728 9.06342 24.1566 8.08889L25.9261 7.56417L25.9056 16.9801H18.0021L18.1752 15.2973ZM18.8855 20.7228V19.7216H43.5588L43.5606 20.6193C43.0216 27.7866 38.9971 35.0163 31.2213 35.0163C23.4455 35.0163 19.4209 27.7864 18.8855 20.7228ZM31.2212 37.7575C32.2509 37.7575 33.2164 37.6406 34.1383 37.4524C34.638 38.7783 35.4171 39.9491 36.4103 40.9067L31.2579 45.0908L26.0225 40.862C26.9934 39.9099 27.7527 38.7516 28.24 37.4417C29.1805 37.6379 30.1674 37.7575 31.2212 37.7575ZM18.3313 44.1333L21.6652 57.232H12.98V45.371C13.4691 45.2202 17.1061 44.4162 18.3313 44.1333ZM6.32581 51.3033C6.65501 49.0012 8.47098 47.4724 10.2387 46.5114V57.232H5.40136C5.64048 55.7953 6.00097 53.5751 6.32581 51.3033ZM24.4939 57.232L20.9942 43.482C21.4438 43.3642 23.2294 42.761 23.7078 42.5183L30.3994 47.9213C30.6501 48.123 30.9554 48.2247 31.2606 48.2247C31.5666 48.2247 31.8727 48.123 32.1244 47.9177L38.7357 42.5494C39.1917 42.776 40.939 43.3606 41.394 43.4793L38.0184 57.232H24.4939ZM40.8408 57.232C40.8408 57.232 42.3863 51.2507 42.4317 51.4086C43.002 53.4047 43.7042 55.343 44.5073 57.232H40.8408ZM63.3813 67.0602L60.2287 71.0007C59.3639 72.0822 57.5534 72.0822 56.6879 71.0007L53.5379 67.0637C49.6348 62.1862 46.7846 56.6643 45.1018 50.5821C51.0577 48.1623 55.6867 43.9056 56.8146 42.8008C57.2572 42.3671 57.8409 42.128 58.4601 42.128C59.0776 42.128 59.6611 42.3671 60.1029 42.8008C63.4974 46.1239 67.437 48.742 71.8489 50.6553C70.1326 56.6627 67.2835 62.1809 63.3813 67.0602Z" fill="#1C444C"/>
<path d="M54.0893 55.6953C53.5539 55.1599 52.6866 55.1599 52.1511 55.6953C51.6157 56.2307 51.6157 57.098 52.1511 57.6336L55.8409 61.3225C56.1469 61.6312 56.5557 61.8007 56.9902 61.8007C57.4248 61.8007 57.8325 61.6312 58.136 61.326L65.6985 53.7625C66.2339 53.2271 66.2339 52.3598 65.6985 51.8243C65.1641 51.2889 64.2958 51.2889 63.7603 51.8243L56.9902 58.5953L54.0893 55.6953Z" fill="#1C444C"/>
</svg>
