<svg width="77" height="77" viewBox="0 0 77 77" fill="none" xmlns="http://www.w3.org/2000/svg">
<path d="M51.3317 74.2713C51.7371 74.2713 52.1211 74.0926 52.3818 73.7819C52.6426 73.4712 52.7533 73.0603 52.6828 72.6619C52.681 72.6547 52.1281 69.5131 51.6549 66.2051C50.8528 60.5869 43.9764 58.8989 43.1467 58.715C43.1458 58.715 43.1449 58.7141 43.144 58.7141C43.144 58.7141 37.5106 57.4764 36.0986 57.0424C34.5151 56.5539 33.2998 55.3992 32.6559 53.9185C37.7213 51.5957 40.4085 45.8381 40.8416 40.0422V39.3581H42.8394C43.5977 39.3581 44.2111 38.7438 44.2111 37.9864C44.2111 37.229 43.5975 36.6147 42.8394 36.6147H41.5194L41.3702 35.1072C40.9737 31.0991 38.2214 27.7681 34.3598 26.625L32.3227 26.0195V25.3462C32.3227 24.5888 31.7092 23.9745 30.951 23.9745H24.1853C23.4288 23.9745 22.8144 24.5872 22.8135 25.3426L22.8117 26.0115L20.7264 26.6304C16.8791 27.7717 14.1285 31.0868 13.7196 35.0751L13.5606 36.6148H12.2692C11.5118 36.6148 10.8975 37.2293 10.8975 37.9865C10.8975 38.7439 11.512 39.3582 12.2692 39.3582H14.3241L14.325 40.146C14.7546 45.8446 17.4258 51.5673 22.4607 53.8991C21.8177 55.3914 20.5996 56.5524 19.0126 57.0427C17.5989 57.4767 11.9645 58.7144 11.9645 58.7144C11.9636 58.7144 11.9636 58.7153 11.9618 58.7153C11.1348 58.8983 4.25564 60.5863 3.45361 66.2054C2.98033 69.5132 2.4275 72.655 2.42659 72.6623C2.35606 73.0605 2.46675 73.4714 2.72662 73.7822C2.9874 74.0931 3.37225 74.2716 3.7777 74.2716H51.3317V74.2713ZM43.1664 61.5561V71.5279H36.1586L38.8494 60.5683C39.8202 60.7915 42.8199 61.4533 43.1664 61.5561ZM48.9391 66.5946C49.2069 68.4665 49.5008 70.2847 49.7071 71.5279H45.9099V62.725C47.3137 63.5412 48.6801 64.78 48.9391 66.5946ZM33.5794 29.2541C36.3675 30.0811 38.3537 32.4834 38.6404 35.3786L38.7628 36.6147H32.3229V28.8808L33.5794 29.2541ZM29.5795 26.7179V36.6148H25.5331L25.5546 26.7179H29.5795ZM16.4489 35.3554C16.7436 32.4762 18.7297 30.0846 21.5053 29.2595L22.8056 28.8738L22.7895 36.6148H16.3185L16.4489 35.3554ZM17.065 40.0422V39.3581H38.1009L38.1018 39.9386C37.641 46.0703 34.2089 52.2574 27.5817 52.2574C20.9544 52.2574 17.5224 46.0703 17.065 40.0422ZM27.5817 55.001C28.4309 55.001 29.2267 54.9064 29.9929 54.7608C30.4072 55.8146 31.0253 56.755 31.8013 57.5436L27.6139 60.9453L23.3432 57.4964C24.0854 56.7239 24.6855 55.7996 25.107 54.7494C25.892 54.9028 26.7091 55.001 27.5817 55.001ZM16.2684 60.5665L19.0583 71.5279H11.9424V61.5561C12.2898 61.4533 15.2942 60.7898 16.2684 60.5665ZM6.16982 66.5946C6.42879 64.78 7.79524 63.5412 9.19913 62.725V71.5279H5.40267C5.60886 70.2847 5.90182 68.4647 6.16982 66.5946ZM21.8894 71.5279L18.9333 59.9145C19.2585 59.8279 20.6533 59.359 21.0454 59.1653L26.7538 63.7761C27.0057 63.9798 27.3102 64.0816 27.6155 64.0816C27.9228 64.0816 28.2282 63.9797 28.4809 63.7743L34.1187 59.1948C34.4947 59.376 35.8566 59.8288 36.1843 59.9163L33.3337 71.5279H21.8894Z" fill="#1C444C"/>
<path d="M49.5311 32.1852H59.1047V37.6936H57.4177C56.3585 37.6936 55.4968 38.5544 55.4968 39.6136V53.0737C55.4968 56.0797 57.9429 58.5249 60.9489 58.5249C63.9549 58.5249 66.401 56.0797 66.401 53.0737V39.6136C66.401 38.5544 65.5393 37.6936 64.4801 37.6936H61.8482V32.1852H71.5093C72.5631 32.1852 73.5321 31.6566 74.1019 30.7706C74.6718 29.8847 74.7512 28.7844 74.3153 27.8272L63.7182 4.53438C63.2109 3.41983 62.1356 2.72864 60.9113 2.72864C59.7244 2.72864 58.6634 3.39126 58.1428 4.45753L46.7617 27.7502C46.2918 28.7112 46.3499 29.8274 46.9161 30.7348C47.4834 31.6421 48.4612 32.1852 49.5311 32.1852ZM63.6574 53.0737C63.6574 54.5669 62.442 55.7815 60.9488 55.7815C59.4555 55.7815 58.2401 54.5669 58.2401 53.0737V52.1342H63.6573V53.0737H63.6574ZM63.6574 49.3908H58.2402V40.437H63.6574V49.3908ZM49.2266 28.9541L60.6077 5.66141C60.6693 5.53463 60.7711 5.47206 60.9113 5.47206C61.0113 5.47206 61.1462 5.50605 61.2213 5.67028L71.8182 28.9629C71.8808 29.1022 71.8398 29.2148 71.7951 29.2863C71.7486 29.3577 71.6629 29.4416 71.5093 29.4416H61.8482V23.5886C61.8482 22.8312 61.2338 22.2169 60.4765 22.2169C59.7192 22.2169 59.1048 22.8314 59.1048 23.5886V29.4416H49.5313C49.3759 29.4416 49.2893 29.3541 49.2437 29.2827C49.198 29.2094 49.1587 29.0935 49.2266 28.9541Z" fill="#1C444C"/>
</svg>
