<svg width="77" height="77" viewBox="0 0 77 77" fill="none" xmlns="http://www.w3.org/2000/svg">
<path d="M35.3091 6.82729C27.4832 3.76143 6.93896 2.75998 4.1626 2.63681L2.8312 2.97293C2.5232 3.26334 2.28302 3.77722 2.47477 4.39503V61.9289L2.47567 62.4058L2.77224 62.7771C3.25094 63.3737 3.26417 63.3913 20.0078 64.9859L19.3918 70.2324C19.3072 70.9558 19.6223 71.6651 20.2207 72.091C22.3011 73.5483 24.6058 74.1491 26.7036 74.2716C30.6771 74.5038 32.5204 71.4398 32.5204 71.4398L39.4925 15.4863C39.8295 14.2367 39.8225 12.8217 39.4379 11.4665C38.8237 9.30543 37.3189 7.61579 35.3091 6.82729ZM29.9305 70.3576C28.3526 72.0595 25 71.9574 22.1268 70.1147L28.0825 19.3902C28.1143 19.1192 28.2708 18.9713 28.3958 18.8939C28.5902 18.776 28.8306 18.7566 29.055 18.8376C31.3729 19.6947 34.195 19.9113 36.3175 19.0963L29.9305 70.3576ZM36.3773 15.8596C35.486 17.0512 32.5616 17.2536 29.992 16.3031C28.9844 15.9282 27.8879 16.0338 26.9833 16.5901C26.0972 17.1321 25.5199 18.0385 25.3976 19.0735L20.3227 62.3005C15.2804 61.82 7.89635 61.0896 5.17804 60.7676L5.16751 5.39497C10.2301 5.65726 27.6523 6.73074 34.3225 9.34438C35.9884 9.99738 36.5428 11.4411 36.8366 12.2062C37.4095 13.6967 36.5745 15.5973 36.3773 15.8596Z" fill="#1C444C"/>
<path d="M61.8128 74.3632H72.8814C73.8257 74.3632 74.5939 73.5959 74.5939 72.6507V13.899C74.5939 12.9539 73.8257 12.1865 72.8814 12.1865H61.8128C60.8678 12.1865 60.1003 12.9538 60.1003 13.899V72.6507C60.1003 73.5959 60.8676 74.3632 61.8128 74.3632ZM62.8036 14.8897H71.8904V18.8268H69.1158C68.3696 18.8268 67.7641 19.4323 67.7641 20.1785C67.7641 20.9248 68.3696 21.5302 69.1158 21.5302H71.8904V26.43H69.1158C68.3696 26.43 67.7641 27.0354 67.7641 27.7817C67.7641 28.5279 68.3696 29.1334 69.1158 29.1334H71.8904V34.0349H69.1158C68.3696 34.0349 67.7641 34.6404 67.7641 35.3866C67.7641 36.1329 68.3696 36.7383 69.1158 36.7383H71.8904V41.6381H69.1158C68.3696 41.6381 67.7641 42.2435 67.7641 42.9898C67.7641 43.736 68.3696 44.3415 69.1158 44.3415H71.8904V49.243H69.1158C68.3696 49.243 67.7641 49.8485 67.7641 50.5947C67.7641 51.341 68.3696 51.9464 69.1158 51.9464H71.8904V56.848H69.1158C68.3696 56.848 67.7641 57.4534 67.7641 58.1997C67.7641 58.9459 68.3696 59.5514 69.1158 59.5514H71.8904V64.4513H69.1158C68.3696 64.4513 67.7641 65.0567 67.7641 65.803C67.7641 66.5492 68.3696 67.1547 69.1158 67.1547H71.8904V71.6602H62.8036V14.8897Z" fill="#1C444C"/>
<path d="M51.2951 36.872C50.6932 35.6752 48.7465 35.6681 48.1403 36.8755C48.1403 36.8755 44.2402 45.2046 44.2402 45.5347V72.4713C44.2402 73.515 45.0895 74.3632 46.1331 74.3632H53.3041C54.3469 74.3632 55.196 73.5149 55.196 72.4713V45.5347C55.196 45.2047 51.2951 36.872 51.2951 36.872ZM46.9435 46.346H52.4928V66.6106H46.9435V46.346ZM49.7181 39.7637L51.6575 43.6428H47.7794L49.7181 39.7637ZM52.4928 71.6599H46.9435V69.3138H52.4928V71.6599Z" fill="#1C444C"/>
</svg>
