<svg width="300" height="157" viewBox="0 0 300 157" fill="none" xmlns="http://www.w3.org/2000/svg">
<g clip-path="url(#clip0_94_1876)">
<rect width="300" height="157.343" fill="#F6F6F6"/>
<g clip-path="url(#clip1_94_1876)">
<path d="M488.81 66.2301H472.267L469.672 69.1148H465.131L462.861 66.2301H445.021L434.965 46.0378H422.964L415.503 66.2301H395.069L391.825 69.1148H387.608L384.365 66.2301H367.822L365.227 69.1148H360.686L358.415 66.2301H340.575L330.52 46.0378H318.519L311.058 66.2301H288.677L286.855 69.1148H282.639L279.919 66.2301H262.079L259.484 69.1148H255.592L252.797 66.2301H228.671L218.615 46.5623H206.613L192.745 67.3956H181.731" stroke="#1C2A35" stroke-opacity="0.4" stroke-width="0.524476"/>
<path d="M181.731 117.22L443.18 118.94" stroke="#1C2A35" stroke-opacity="0.4" stroke-width="0.524476"/>
<path d="M181.993 115.381L443.182 116.958M181.993 71.8531H387.74" stroke="#1C2A35" stroke-opacity="0.1" stroke-width="0.524476"/>
<path d="M181.731 53.7588V88.1119L189.598 89.1609L169.406 90.2098L181.731 91.7833V130.332" stroke="#1C2A35" stroke-opacity="0.15" stroke-width="0.524476"/>
</g>
</g>
<defs>
<clipPath id="clip0_94_1876">
<rect width="300" height="157" fill="white"/>
</clipPath>
<clipPath id="clip1_94_1876">
<rect width="265.909" height="96.5035" fill="white" transform="translate(144.755 37.2378)"/>
</clipPath>
</defs>
</svg>
